<svg width="38" height="24" viewBox="0 0 38 24" fill="none" xmlns="http://www.w3.org/2000/svg">
<path d="M11.96 23.32C10.3387 23.32 8.824 23.0213 7.416 22.424C6.008 21.8267 4.77067 21.0053 3.704 19.96C2.63733 18.8933 1.79467 17.6667 1.176 16.28C0.578667 14.8933 0.28 13.4 0.28 11.8C0.28 10.2 0.578667 8.70667 1.176 7.32C1.79467 5.93333 2.63733 4.71733 3.704 3.672C4.77067 2.60533 6.008 1.77333 7.416 1.176C8.824 0.578665 10.3387 0.279999 11.96 0.279999C12.9627 0.279999 13.9333 0.386665 14.872 0.599998C15.8107 0.813332 16.6747 1.13333 17.464 1.56C17.784 1.73067 18.0187 1.96533 18.168 2.264C18.3387 2.54133 18.424 2.82933 18.424 3.128C18.424 3.64 18.2533 4.09867 17.912 4.504C17.5707 4.90933 17.1333 5.112 16.6 5.112C16.4293 5.112 16.248 5.09067 16.056 5.048C15.8853 5.00533 15.7147 4.94133 15.544 4.856C15.0107 4.62133 14.4453 4.44 13.848 4.312C13.2507 4.184 12.6213 4.12 11.96 4.12C10.5733 4.12 9.304 4.472 8.152 5.176C7.02133 5.85867 6.11467 6.78667 5.432 7.96C4.77067 9.112 4.44 10.392 4.44 11.8C4.44 13.1867 4.77067 14.4667 5.432 15.64C6.11467 16.8133 7.02133 17.752 8.152 18.456C9.304 19.1387 10.5733 19.48 11.96 19.48C12.6 19.48 13.304 19.416 14.072 19.288C14.84 19.16 15.4693 18.9893 15.96 18.776L15.672 19.736V14.264L16.216 14.744H12.664C12.1093 14.744 11.64 14.5627 11.256 14.2C10.8933 13.8373 10.712 13.3787 10.712 12.824C10.712 12.2693 10.8933 11.8107 11.256 11.448C11.64 11.0853 12.1093 10.904 12.664 10.904H17.912C18.4667 10.904 18.9253 11.096 19.288 11.48C19.6507 11.8427 19.832 12.3013 19.832 12.856V19.64C19.832 20.0667 19.7253 20.4187 19.512 20.696C19.32 20.9733 19.096 21.1973 18.84 21.368C17.8587 21.9653 16.7813 22.4453 15.608 22.808C14.456 23.1493 13.24 23.32 11.96 23.32ZM25.6973 23C25.0999 23 24.6093 22.8187 24.2253 22.456C23.8626 22.072 23.6813 21.6027 23.6813 21.048V2.552C23.6813 1.99733 23.8626 1.53867 24.2253 1.176C24.6093 0.791999 25.0786 0.599998 25.6333 0.599998H36.0333C36.5879 0.599998 37.0466 0.781332 37.4093 1.144C37.7933 1.48533 37.9853 1.93333 37.9853 2.488C37.9853 2.95733 37.7933 3.37333 37.4093 3.736C37.0466 4.09867 36.5879 4.28 36.0333 4.28H27.3933L27.6813 3.896V10.328L27.4573 9.912H34.5933C35.1479 9.912 35.6066 10.0933 35.9693 10.456C36.3533 10.7973 36.5453 11.2453 36.5453 11.8C36.5453 12.2693 36.3533 12.6853 35.9693 13.048C35.6066 13.4107 35.1479 13.592 34.5933 13.592H27.3933L27.6813 13.304V21.048C27.6813 21.6027 27.4786 22.072 27.0733 22.456C26.6893 22.8187 26.2306 23 25.6973 23Z" fill="white"/>
</svg>
